<mxfile host="app.diagrams.net" agent="Mozilla/5.0 (Macintosh; Intel Mac OS X 10_15_7) AppleWebKit/537.36 (KHTML, like Gecko) Chrome/130.0.0.0 Safari/537.36" version="24.8.4">
  <diagram id="53IQXVl9icCSp_Kw3Ib1" name="Page-1">
    <mxGraphModel dx="3651" dy="2550" grid="1" gridSize="10" guides="1" tooltips="1" connect="1" arrows="1" fold="1" page="1" pageScale="1" pageWidth="1100" pageHeight="850" math="0" shadow="0">
      <root>
        <mxCell id="0" />
        <mxCell id="1" parent="0" />
        <mxCell id="zJDsTTuemi93wpmoAbpu-2" value="" style="rounded=0;whiteSpace=wrap;html=1;sketch=1;curveFitting=1;jiggle=2;strokeWidth=5;" vertex="1" parent="1">
          <mxGeometry x="-130" y="-30" width="1480" height="1040" as="geometry" />
        </mxCell>
        <mxCell id="HIq26qkVBO2vfs1bq9Pp-66" value="" style="endArrow=none;html=1;rounded=0;strokeWidth=5;endFill=0;strokeColor=#CCCCCC;shadow=0;sketch=1;curveFitting=1;jiggle=2;" parent="1" target="HIq26qkVBO2vfs1bq9Pp-63" edge="1">
          <mxGeometry width="50" height="50" relative="1" as="geometry">
            <mxPoint x="120" y="514" as="sourcePoint" />
            <mxPoint x="1290" y="505" as="targetPoint" />
          </mxGeometry>
        </mxCell>
        <mxCell id="HIq26qkVBO2vfs1bq9Pp-65" value="" style="endArrow=none;html=1;rounded=0;strokeWidth=5;endFill=0;strokeColor=#CCCCCC;shadow=0;sketch=1;curveFitting=1;jiggle=2;" parent="1" source="HIq26qkVBO2vfs1bq9Pp-67" edge="1">
          <mxGeometry width="50" height="50" relative="1" as="geometry">
            <mxPoint x="120" y="514" as="sourcePoint" />
            <mxPoint x="1290" y="505" as="targetPoint" />
          </mxGeometry>
        </mxCell>
        <mxCell id="HIq26qkVBO2vfs1bq9Pp-46" value="" style="endArrow=none;html=1;rounded=0;strokeWidth=5;endFill=0;strokeColor=#CCCCCC;shadow=0;sketch=1;curveFitting=1;jiggle=2;" parent="1" edge="1">
          <mxGeometry width="50" height="50" relative="1" as="geometry">
            <mxPoint x="110" y="369" as="sourcePoint" />
            <mxPoint x="1280" y="360" as="targetPoint" />
          </mxGeometry>
        </mxCell>
        <mxCell id="HIq26qkVBO2vfs1bq9Pp-13" value="" style="endArrow=none;html=1;rounded=0;strokeWidth=5;endFill=0;entryX=0;entryY=0.5;entryDx=0;entryDy=0;sketch=1;curveFitting=1;jiggle=2;exitX=1.003;exitY=0.531;exitDx=0;exitDy=0;exitPerimeter=0;strokeColor=#CCCCCC;" parent="1" source="HIq26qkVBO2vfs1bq9Pp-5" target="HIq26qkVBO2vfs1bq9Pp-6" edge="1">
          <mxGeometry width="50" height="50" relative="1" as="geometry">
            <mxPoint x="120" y="664" as="sourcePoint" />
            <mxPoint x="1140" y="665" as="targetPoint" />
          </mxGeometry>
        </mxCell>
        <mxCell id="HIq26qkVBO2vfs1bq9Pp-42" value="" style="endArrow=none;html=1;rounded=0;strokeWidth=5;endFill=0;entryX=0;entryY=0.5;entryDx=0;entryDy=0;sketch=1;curveFitting=1;jiggle=2;exitX=1.002;exitY=0.502;exitDx=0;exitDy=0;exitPerimeter=0;strokeColor=#CCCCCC;" parent="1" source="HIq26qkVBO2vfs1bq9Pp-34" target="HIq26qkVBO2vfs1bq9Pp-35" edge="1">
          <mxGeometry width="50" height="50" relative="1" as="geometry">
            <mxPoint x="140" y="814.29" as="sourcePoint" />
            <mxPoint x="330" y="815.29" as="targetPoint" />
          </mxGeometry>
        </mxCell>
        <mxCell id="HIq26qkVBO2vfs1bq9Pp-56" style="rounded=0;orthogonalLoop=1;jettySize=auto;html=1;endArrow=none;endFill=0;dashed=1;dashPattern=1 1;strokeWidth=3;sketch=1;curveFitting=1;jiggle=2;strokeColor=#000000;entryX=0;entryY=0.5;entryDx=0;entryDy=0;entryPerimeter=0;" parent="1" target="HIq26qkVBO2vfs1bq9Pp-55" edge="1">
          <mxGeometry relative="1" as="geometry">
            <mxPoint x="480" y="480" as="sourcePoint" />
            <mxPoint x="580" y="269" as="targetPoint" />
          </mxGeometry>
        </mxCell>
        <mxCell id="HIq26qkVBO2vfs1bq9Pp-54" style="rounded=0;orthogonalLoop=1;jettySize=auto;html=1;exitX=0.5;exitY=1;exitDx=0;exitDy=0;exitPerimeter=0;endArrow=none;endFill=0;dashed=1;dashPattern=1 1;strokeWidth=3;sketch=1;curveFitting=1;jiggle=2;strokeColor=#000000;" parent="1" source="HIq26qkVBO2vfs1bq9Pp-53" edge="1">
          <mxGeometry relative="1" as="geometry">
            <mxPoint x="760" y="150" as="sourcePoint" />
            <mxPoint x="520" y="290" as="targetPoint" />
          </mxGeometry>
        </mxCell>
        <mxCell id="HIq26qkVBO2vfs1bq9Pp-3" value="&lt;b&gt;&lt;font style=&quot;font-size: 32px;&quot;&gt;main&lt;/font&gt;&lt;/b&gt;" style="text;html=1;align=left;verticalAlign=middle;resizable=0;points=[];autosize=1;strokeColor=none;fillColor=none;sketch=1;curveFitting=1;jiggle=2;fontFamily=Courier New;" parent="1" vertex="1">
          <mxGeometry x="-60" y="204.5" width="100" height="50" as="geometry" />
        </mxCell>
        <mxCell id="HIq26qkVBO2vfs1bq9Pp-4" value="" style="endArrow=none;html=1;rounded=0;strokeWidth=5;endFill=0;sketch=1;curveFitting=1;jiggle=2;" parent="1" edge="1">
          <mxGeometry width="50" height="50" relative="1" as="geometry">
            <mxPoint x="839.9995912543927" y="230.17856960381437" as="sourcePoint" />
            <mxPoint x="1120" y="230" as="targetPoint" />
          </mxGeometry>
        </mxCell>
        <mxCell id="HIq26qkVBO2vfs1bq9Pp-5" value="&lt;b&gt;&lt;font style=&quot;font-size: 32px;&quot;&gt;develop&lt;/font&gt;&lt;/b&gt;" style="text;html=1;align=left;verticalAlign=middle;resizable=0;points=[];autosize=1;strokeColor=none;fillColor=none;sketch=1;curveFitting=1;jiggle=2;fontFamily=Courier New;" parent="1" vertex="1">
          <mxGeometry x="-60" y="640" width="160" height="50" as="geometry" />
        </mxCell>
        <mxCell id="HIq26qkVBO2vfs1bq9Pp-10" value="" style="endArrow=none;html=1;rounded=0;strokeWidth=5;endFill=0;exitX=1;exitY=0.5;exitDx=0;exitDy=0;sketch=1;curveFitting=1;jiggle=2;strokeColor=#CCCCCC;" parent="1" source="HIq26qkVBO2vfs1bq9Pp-25" edge="1">
          <mxGeometry width="50" height="50" relative="1" as="geometry">
            <mxPoint x="120" y="664.41" as="sourcePoint" />
            <mxPoint x="1280" y="664" as="targetPoint" />
          </mxGeometry>
        </mxCell>
        <mxCell id="HIq26qkVBO2vfs1bq9Pp-18" style="edgeStyle=orthogonalEdgeStyle;rounded=0;orthogonalLoop=1;jettySize=auto;html=1;exitX=0.5;exitY=0;exitDx=0;exitDy=0;entryX=0.5;entryY=1;entryDx=0;entryDy=0;strokeWidth=5;curved=1;endArrow=block;endFill=1;sketch=1;curveFitting=1;jiggle=2;" parent="1" source="HIq26qkVBO2vfs1bq9Pp-12" target="HIq26qkVBO2vfs1bq9Pp-63" edge="1">
          <mxGeometry relative="1" as="geometry" />
        </mxCell>
        <mxCell id="HIq26qkVBO2vfs1bq9Pp-27" style="edgeStyle=orthogonalEdgeStyle;rounded=0;orthogonalLoop=1;jettySize=auto;html=1;exitX=1;exitY=0.5;exitDx=0;exitDy=0;entryX=0;entryY=0.5;entryDx=0;entryDy=0;strokeWidth=5;endArrow=block;endFill=1;sketch=1;curveFitting=1;jiggle=2;" parent="1" source="HIq26qkVBO2vfs1bq9Pp-12" target="HIq26qkVBO2vfs1bq9Pp-24" edge="1">
          <mxGeometry relative="1" as="geometry" />
        </mxCell>
        <mxCell id="HIq26qkVBO2vfs1bq9Pp-12" value="" style="ellipse;whiteSpace=wrap;html=1;aspect=fixed;strokeWidth=5;fillColor=#66B2FF;sketch=1;curveFitting=1;jiggle=2;gradientColor=#66B2FF;" parent="1" vertex="1">
          <mxGeometry x="650" y="625" width="80" height="80" as="geometry" />
        </mxCell>
        <mxCell id="HIq26qkVBO2vfs1bq9Pp-15" style="edgeStyle=orthogonalEdgeStyle;rounded=0;orthogonalLoop=1;jettySize=auto;html=1;exitX=1;exitY=0.5;exitDx=0;exitDy=0;entryX=0;entryY=0.5;entryDx=0;entryDy=0;strokeWidth=5;endArrow=block;endFill=1;sketch=1;curveFitting=1;jiggle=2;" parent="1" source="HIq26qkVBO2vfs1bq9Pp-11" target="HIq26qkVBO2vfs1bq9Pp-12" edge="1">
          <mxGeometry relative="1" as="geometry" />
        </mxCell>
        <mxCell id="HIq26qkVBO2vfs1bq9Pp-11" value="" style="ellipse;whiteSpace=wrap;html=1;aspect=fixed;strokeWidth=5;fillColor=#66B2FF;sketch=1;curveFitting=1;jiggle=2;gradientColor=#66B2FF;" parent="1" vertex="1">
          <mxGeometry x="480" y="625" width="80" height="80" as="geometry" />
        </mxCell>
        <mxCell id="HIq26qkVBO2vfs1bq9Pp-14" style="edgeStyle=orthogonalEdgeStyle;rounded=0;orthogonalLoop=1;jettySize=auto;html=1;exitX=1;exitY=0.5;exitDx=0;exitDy=0;entryX=0;entryY=0.5;entryDx=0;entryDy=0;strokeWidth=5;endArrow=block;endFill=1;sketch=1;curveFitting=1;jiggle=2;" parent="1" source="HIq26qkVBO2vfs1bq9Pp-6" target="HIq26qkVBO2vfs1bq9Pp-11" edge="1">
          <mxGeometry relative="1" as="geometry" />
        </mxCell>
        <mxCell id="HIq26qkVBO2vfs1bq9Pp-38" style="edgeStyle=orthogonalEdgeStyle;rounded=0;orthogonalLoop=1;jettySize=auto;html=1;exitX=0.5;exitY=1;exitDx=0;exitDy=0;entryX=0.5;entryY=0;entryDx=0;entryDy=0;curved=1;strokeWidth=5;endArrow=block;endFill=1;sketch=1;curveFitting=1;jiggle=2;" parent="1" source="HIq26qkVBO2vfs1bq9Pp-6" target="HIq26qkVBO2vfs1bq9Pp-35" edge="1">
          <mxGeometry relative="1" as="geometry" />
        </mxCell>
        <mxCell id="HIq26qkVBO2vfs1bq9Pp-6" value="" style="ellipse;whiteSpace=wrap;html=1;aspect=fixed;strokeWidth=5;fillColor=#66B2FF;sketch=1;curveFitting=1;jiggle=2;gradientColor=#66B2FF;" parent="1" vertex="1">
          <mxGeometry x="310" y="625" width="80" height="80" as="geometry" />
        </mxCell>
        <mxCell id="HIq26qkVBO2vfs1bq9Pp-17" value="" style="endArrow=block;html=1;rounded=0;strokeWidth=5;endFill=1;exitX=0.974;exitY=0.468;exitDx=0;exitDy=0;exitPerimeter=0;entryX=0;entryY=0.5;entryDx=0;entryDy=0;sketch=1;curveFitting=1;jiggle=2;" parent="1" source="HIq26qkVBO2vfs1bq9Pp-3" edge="1">
          <mxGeometry width="50" height="50" relative="1" as="geometry">
            <mxPoint x="100" y="229.41" as="sourcePoint" />
            <mxPoint x="199.9999999999941" y="229.5" as="targetPoint" />
          </mxGeometry>
        </mxCell>
        <mxCell id="HIq26qkVBO2vfs1bq9Pp-32" style="edgeStyle=orthogonalEdgeStyle;rounded=0;orthogonalLoop=1;jettySize=auto;html=1;exitX=1;exitY=0.5;exitDx=0;exitDy=0;entryX=0;entryY=0.5;entryDx=0;entryDy=0;strokeWidth=5;endArrow=block;endFill=1;sketch=1;curveFitting=1;jiggle=2;" parent="1" source="HIq26qkVBO2vfs1bq9Pp-48" edge="1">
          <mxGeometry relative="1" as="geometry">
            <mxPoint x="840.0000000000273" y="230" as="sourcePoint" />
            <mxPoint x="1099.999999999994" y="230" as="targetPoint" />
          </mxGeometry>
        </mxCell>
        <mxCell id="HIq26qkVBO2vfs1bq9Pp-2" value="" style="ellipse;whiteSpace=wrap;html=1;aspect=fixed;strokeWidth=5;sketch=1;curveFitting=1;jiggle=2;" parent="1" vertex="1">
          <mxGeometry x="200" y="190" width="80" height="79" as="geometry" />
        </mxCell>
        <mxCell id="HIq26qkVBO2vfs1bq9Pp-24" value="" style="ellipse;whiteSpace=wrap;html=1;aspect=fixed;strokeWidth=5;fillColor=#66B2FF;sketch=1;curveFitting=1;jiggle=2;gradientColor=#66B2FF;" parent="1" vertex="1">
          <mxGeometry x="820" y="625" width="80" height="80" as="geometry" />
        </mxCell>
        <mxCell id="HIq26qkVBO2vfs1bq9Pp-25" value="" style="ellipse;whiteSpace=wrap;html=1;aspect=fixed;strokeWidth=5;fillColor=#66B2FF;sketch=1;curveFitting=1;jiggle=2;gradientColor=#66B2FF;" parent="1" vertex="1">
          <mxGeometry x="990" y="625" width="80" height="80" as="geometry" />
        </mxCell>
        <mxCell id="HIq26qkVBO2vfs1bq9Pp-26" style="edgeStyle=orthogonalEdgeStyle;rounded=0;orthogonalLoop=1;jettySize=auto;html=1;exitX=1;exitY=0.5;exitDx=0;exitDy=0;entryX=0;entryY=0.5;entryDx=0;entryDy=0;strokeWidth=5;endArrow=block;endFill=1;sketch=1;curveFitting=1;jiggle=2;" parent="1" source="HIq26qkVBO2vfs1bq9Pp-24" target="HIq26qkVBO2vfs1bq9Pp-25" edge="1">
          <mxGeometry relative="1" as="geometry" />
        </mxCell>
        <mxCell id="HIq26qkVBO2vfs1bq9Pp-33" style="edgeStyle=orthogonalEdgeStyle;rounded=0;orthogonalLoop=1;jettySize=auto;html=1;exitX=1;exitY=0.5;exitDx=0;exitDy=0;strokeWidth=5;endArrow=none;endFill=0;sketch=1;curveFitting=1;jiggle=2;strokeColor=#CCCCCC;" parent="1" edge="1">
          <mxGeometry relative="1" as="geometry">
            <mxPoint x="1280" y="230.14285714285734" as="targetPoint" />
            <mxPoint x="1180.000000000006" y="230" as="sourcePoint" />
          </mxGeometry>
        </mxCell>
        <mxCell id="HIq26qkVBO2vfs1bq9Pp-28" value="" style="ellipse;whiteSpace=wrap;html=1;aspect=fixed;strokeWidth=5;sketch=1;curveFitting=1;jiggle=2;" parent="1" vertex="1">
          <mxGeometry x="1100" y="200.5" width="80" height="79" as="geometry" />
        </mxCell>
        <mxCell id="HIq26qkVBO2vfs1bq9Pp-29" style="edgeStyle=orthogonalEdgeStyle;rounded=0;orthogonalLoop=1;jettySize=auto;html=1;exitX=0.5;exitY=1;exitDx=0;exitDy=0;exitPerimeter=0;entryX=0.5;entryY=0;entryDx=0;entryDy=0;endArrow=none;endFill=0;dashed=1;dashPattern=1 1;strokeWidth=3;sketch=1;curveFitting=1;jiggle=2;" parent="1" source="HIq26qkVBO2vfs1bq9Pp-30" edge="1">
          <mxGeometry relative="1" as="geometry">
            <mxPoint x="1140" y="190.5" as="targetPoint" />
          </mxGeometry>
        </mxCell>
        <mxCell id="HIq26qkVBO2vfs1bq9Pp-30" value="&lt;p style=&quot;line-height: 120%; font-size: 20px;&quot;&gt;&lt;b style=&quot;font-size: 20px;&quot;&gt;&lt;font style=&quot;font-size: 20px;&quot;&gt;production release&lt;/font&gt;&lt;/b&gt;&lt;/p&gt;" style="shape=note;whiteSpace=wrap;html=1;backgroundOutline=1;darkOpacity=0.05;strokeWidth=3;labelPosition=center;verticalLabelPosition=middle;align=center;verticalAlign=bottom;sketch=1;curveFitting=1;jiggle=2;fontSize=20;" parent="1" vertex="1">
          <mxGeometry x="1100" y="30" width="120" height="110" as="geometry" />
        </mxCell>
        <mxCell id="HIq26qkVBO2vfs1bq9Pp-34" value="&lt;b&gt;&lt;font style=&quot;font-size: 32px;&quot;&gt;feature &lt;br&gt;branches&lt;/font&gt;&lt;/b&gt;" style="text;html=1;align=left;verticalAlign=middle;resizable=0;points=[];autosize=1;strokeColor=none;fillColor=none;sketch=1;curveFitting=1;jiggle=2;fontFamily=Courier New;" parent="1" vertex="1">
          <mxGeometry x="-60" y="770" width="180" height="90" as="geometry" />
        </mxCell>
        <mxCell id="HIq26qkVBO2vfs1bq9Pp-39" style="edgeStyle=orthogonalEdgeStyle;rounded=0;orthogonalLoop=1;jettySize=auto;html=1;exitX=1;exitY=0.5;exitDx=0;exitDy=0;entryX=0;entryY=0.5;entryDx=0;entryDy=0;strokeWidth=5;endArrow=block;endFill=1;sketch=1;curveFitting=1;jiggle=2;" parent="1" source="HIq26qkVBO2vfs1bq9Pp-35" target="HIq26qkVBO2vfs1bq9Pp-36" edge="1">
          <mxGeometry relative="1" as="geometry" />
        </mxCell>
        <mxCell id="HIq26qkVBO2vfs1bq9Pp-35" value="" style="ellipse;whiteSpace=wrap;html=1;aspect=fixed;strokeWidth=5;fillColor=#FFCC99;sketch=1;curveFitting=1;jiggle=2;gradientColor=#FFCC99;gradientDirection=south;" parent="1" vertex="1">
          <mxGeometry x="430" y="775" width="80" height="80" as="geometry" />
        </mxCell>
        <mxCell id="HIq26qkVBO2vfs1bq9Pp-40" style="edgeStyle=orthogonalEdgeStyle;rounded=0;orthogonalLoop=1;jettySize=auto;html=1;exitX=1;exitY=0.5;exitDx=0;exitDy=0;entryX=0;entryY=0.5;entryDx=0;entryDy=0;strokeWidth=5;endArrow=block;endFill=1;sketch=1;curveFitting=1;jiggle=2;" parent="1" source="HIq26qkVBO2vfs1bq9Pp-36" target="HIq26qkVBO2vfs1bq9Pp-37" edge="1">
          <mxGeometry relative="1" as="geometry" />
        </mxCell>
        <mxCell id="HIq26qkVBO2vfs1bq9Pp-36" value="" style="ellipse;whiteSpace=wrap;html=1;aspect=fixed;strokeWidth=5;fillColor=#FFCC99;sketch=1;curveFitting=1;jiggle=2;gradientColor=#FFCC99;" parent="1" vertex="1">
          <mxGeometry x="570" y="775" width="80" height="80" as="geometry" />
        </mxCell>
        <mxCell id="HIq26qkVBO2vfs1bq9Pp-41" style="edgeStyle=orthogonalEdgeStyle;rounded=0;orthogonalLoop=1;jettySize=auto;html=1;exitX=0.5;exitY=0;exitDx=0;exitDy=0;entryX=0.5;entryY=1;entryDx=0;entryDy=0;curved=1;strokeWidth=5;endArrow=block;endFill=1;sketch=1;curveFitting=1;jiggle=2;" parent="1" source="HIq26qkVBO2vfs1bq9Pp-37" target="HIq26qkVBO2vfs1bq9Pp-24" edge="1">
          <mxGeometry relative="1" as="geometry" />
        </mxCell>
        <mxCell id="HIq26qkVBO2vfs1bq9Pp-43" style="edgeStyle=orthogonalEdgeStyle;rounded=0;orthogonalLoop=1;jettySize=auto;html=1;exitX=1;exitY=0.5;exitDx=0;exitDy=0;endArrow=none;endFill=0;strokeWidth=5;sketch=1;curveFitting=1;jiggle=2;strokeColor=#CCCCCC;" parent="1" source="HIq26qkVBO2vfs1bq9Pp-37" edge="1">
          <mxGeometry relative="1" as="geometry">
            <mxPoint x="1280" y="814.4285714285716" as="targetPoint" />
          </mxGeometry>
        </mxCell>
        <mxCell id="HIq26qkVBO2vfs1bq9Pp-37" value="" style="ellipse;whiteSpace=wrap;html=1;aspect=fixed;strokeWidth=5;fillColor=#FFCC99;sketch=1;curveFitting=1;jiggle=2;gradientColor=#FFCC99;" parent="1" vertex="1">
          <mxGeometry x="710" y="775" width="80" height="80" as="geometry" />
        </mxCell>
        <mxCell id="HIq26qkVBO2vfs1bq9Pp-44" value="&lt;b&gt;&lt;font style=&quot;font-size: 32px;&quot;&gt;hotfixes&lt;/font&gt;&lt;/b&gt;" style="text;html=1;align=left;verticalAlign=middle;resizable=0;points=[];autosize=1;strokeColor=none;fillColor=none;shadow=0;glass=0;sketch=1;curveFitting=1;jiggle=2;fontFamily=Courier New;" parent="1" vertex="1">
          <mxGeometry x="-60" y="344.5" width="180" height="50" as="geometry" />
        </mxCell>
        <mxCell id="HIq26qkVBO2vfs1bq9Pp-8" style="edgeStyle=orthogonalEdgeStyle;rounded=0;orthogonalLoop=1;jettySize=auto;html=1;exitX=0.5;exitY=1;exitDx=0;exitDy=0;strokeWidth=5;curved=1;strokeColor=default;endArrow=block;endFill=1;flowAnimation=0;shadow=0;sketch=1;curveFitting=1;jiggle=2;" parent="1" source="HIq26qkVBO2vfs1bq9Pp-2" target="HIq26qkVBO2vfs1bq9Pp-6" edge="1">
          <mxGeometry relative="1" as="geometry" />
        </mxCell>
        <mxCell id="HIq26qkVBO2vfs1bq9Pp-47" style="edgeStyle=orthogonalEdgeStyle;rounded=0;orthogonalLoop=1;jettySize=auto;html=1;exitX=0.5;exitY=1;exitDx=0;exitDy=0;entryX=0.5;entryY=0;entryDx=0;entryDy=0;strokeWidth=5;curved=1;endArrow=block;endFill=1;sketch=1;curveFitting=1;jiggle=2;" parent="1" source="HIq26qkVBO2vfs1bq9Pp-45" target="HIq26qkVBO2vfs1bq9Pp-11" edge="1">
          <mxGeometry relative="1" as="geometry" />
        </mxCell>
        <mxCell id="HIq26qkVBO2vfs1bq9Pp-50" style="edgeStyle=orthogonalEdgeStyle;rounded=0;orthogonalLoop=1;jettySize=auto;html=1;exitX=0.5;exitY=0;exitDx=0;exitDy=0;entryX=0.5;entryY=1;entryDx=0;entryDy=0;strokeWidth=5;endArrow=block;endFill=1;curved=1;sketch=1;curveFitting=1;jiggle=2;" parent="1" source="HIq26qkVBO2vfs1bq9Pp-45" target="HIq26qkVBO2vfs1bq9Pp-48" edge="1">
          <mxGeometry relative="1" as="geometry" />
        </mxCell>
        <mxCell id="HIq26qkVBO2vfs1bq9Pp-45" value="" style="ellipse;whiteSpace=wrap;html=1;aspect=fixed;strokeWidth=5;fillColor=#FF3333;strokeColor=#000000;gradientColor=#FF3333;shadow=0;sketch=1;curveFitting=1;jiggle=2;" parent="1" vertex="1">
          <mxGeometry x="430" y="330" width="80" height="79" as="geometry" />
        </mxCell>
        <mxCell id="HIq26qkVBO2vfs1bq9Pp-49" value="" style="edgeStyle=orthogonalEdgeStyle;rounded=0;orthogonalLoop=1;jettySize=auto;html=1;exitX=1;exitY=0.5;exitDx=0;exitDy=0;entryX=0;entryY=0.5;entryDx=0;entryDy=0;strokeWidth=5;endArrow=block;endFill=1;sketch=1;curveFitting=1;jiggle=2;" parent="1" target="HIq26qkVBO2vfs1bq9Pp-48" edge="1">
          <mxGeometry relative="1" as="geometry">
            <mxPoint x="280.0000000000059" y="229.5" as="sourcePoint" />
            <mxPoint x="759.9999999999727" y="230" as="targetPoint" />
          </mxGeometry>
        </mxCell>
        <mxCell id="HIq26qkVBO2vfs1bq9Pp-48" value="" style="ellipse;whiteSpace=wrap;html=1;aspect=fixed;strokeWidth=5;sketch=1;curveFitting=1;jiggle=2;" parent="1" vertex="1">
          <mxGeometry x="540" y="190" width="80" height="79" as="geometry" />
        </mxCell>
        <mxCell id="HIq26qkVBO2vfs1bq9Pp-53" value="&lt;p style=&quot;line-height: 120%; font-size: 20px;&quot;&gt;&lt;b style=&quot;font-size: 20px;&quot;&gt;&lt;font style=&quot;font-size: 20px;&quot;&gt;merge bug fix to prod&lt;/font&gt;&lt;/b&gt;&lt;/p&gt;" style="shape=note;whiteSpace=wrap;html=1;backgroundOutline=1;darkOpacity=0.05;strokeWidth=3;labelPosition=center;verticalLabelPosition=middle;align=center;verticalAlign=bottom;sketch=1;curveFitting=1;jiggle=2;fontSize=20;" parent="1" vertex="1">
          <mxGeometry x="400" y="40" width="120" height="100" as="geometry" />
        </mxCell>
        <mxCell id="HIq26qkVBO2vfs1bq9Pp-55" value="&lt;p style=&quot;line-height: 120%; font-size: 20px;&quot;&gt;&lt;b style=&quot;font-size: 20px;&quot;&gt;&lt;font style=&quot;font-size: 20px;&quot;&gt;merge bug fix to dev&lt;/font&gt;&lt;/b&gt;&lt;/p&gt;" style="shape=note;whiteSpace=wrap;html=1;backgroundOutline=1;darkOpacity=0.05;strokeWidth=3;labelPosition=center;verticalLabelPosition=middle;align=center;verticalAlign=bottom;sketch=1;curveFitting=1;jiggle=2;fontSize=20;" parent="1" vertex="1">
          <mxGeometry x="560" y="370" width="110" height="107" as="geometry" />
        </mxCell>
        <mxCell id="HIq26qkVBO2vfs1bq9Pp-57" value="&lt;p style=&quot;line-height: 120%; font-size: 20px;&quot;&gt;&lt;span style=&quot;font-size: 20px;&quot;&gt;&lt;b style=&quot;font-size: 20px;&quot;&gt;work on new feature&lt;/b&gt;&lt;/span&gt;&lt;/p&gt;" style="shape=note;whiteSpace=wrap;html=1;backgroundOutline=1;darkOpacity=0.05;strokeWidth=3;labelPosition=center;verticalLabelPosition=middle;align=center;verticalAlign=bottom;sketch=1;curveFitting=1;jiggle=2;fontSize=20;" parent="1" vertex="1">
          <mxGeometry x="250" y="830" width="120" height="110" as="geometry" />
        </mxCell>
        <mxCell id="HIq26qkVBO2vfs1bq9Pp-58" style="rounded=0;orthogonalLoop=1;jettySize=auto;html=1;exitX=0;exitY=0;exitDx=65;exitDy=15;exitPerimeter=0;endArrow=none;endFill=0;dashed=1;dashPattern=1 1;strokeWidth=3;sketch=1;curveFitting=1;jiggle=2;strokeColor=#000000;" parent="1" source="HIq26qkVBO2vfs1bq9Pp-57" edge="1">
          <mxGeometry relative="1" as="geometry">
            <mxPoint x="450" y="300" as="sourcePoint" />
            <mxPoint x="400" y="740" as="targetPoint" />
          </mxGeometry>
        </mxCell>
        <mxCell id="HIq26qkVBO2vfs1bq9Pp-59" value="&lt;p style=&quot;line-height: 120%; font-size: 20px;&quot;&gt;&lt;span style=&quot;font-size: 20px;&quot;&gt;&lt;b style=&quot;font-size: 20px;&quot;&gt;merge feature to develop&lt;/b&gt;&lt;/span&gt;&lt;/p&gt;" style="shape=note;whiteSpace=wrap;html=1;backgroundOutline=1;darkOpacity=0.05;strokeWidth=3;labelPosition=center;verticalLabelPosition=middle;align=center;verticalAlign=bottom;sketch=1;curveFitting=1;jiggle=2;fontSize=20;" parent="1" vertex="1">
          <mxGeometry x="830" y="830" width="150" height="110" as="geometry" />
        </mxCell>
        <mxCell id="HIq26qkVBO2vfs1bq9Pp-60" style="rounded=0;orthogonalLoop=1;jettySize=auto;html=1;exitX=0.5;exitY=0;exitDx=0;exitDy=0;exitPerimeter=0;endArrow=none;endFill=0;dashed=1;dashPattern=1 1;strokeWidth=3;sketch=1;curveFitting=1;jiggle=2;strokeColor=#000000;" parent="1" source="HIq26qkVBO2vfs1bq9Pp-59" edge="1">
          <mxGeometry relative="1" as="geometry">
            <mxPoint x="950" y="835" as="sourcePoint" />
            <mxPoint x="810" y="740" as="targetPoint" />
          </mxGeometry>
        </mxCell>
        <mxCell id="HIq26qkVBO2vfs1bq9Pp-61" value="&lt;b&gt;&lt;font style=&quot;font-size: 32px;&quot;&gt;release&lt;br&gt;branches&lt;/font&gt;&lt;/b&gt;" style="text;html=1;align=left;verticalAlign=middle;resizable=0;points=[];autosize=1;strokeColor=none;fillColor=none;sketch=1;curveFitting=1;jiggle=2;fontFamily=Courier New;" parent="1" vertex="1">
          <mxGeometry x="-60" y="477" width="180" height="90" as="geometry" />
        </mxCell>
        <mxCell id="HIq26qkVBO2vfs1bq9Pp-69" style="edgeStyle=orthogonalEdgeStyle;rounded=0;orthogonalLoop=1;jettySize=auto;html=1;exitX=1;exitY=0.5;exitDx=0;exitDy=0;entryX=0;entryY=0.5;entryDx=0;entryDy=0;strokeWidth=5;sketch=1;curveFitting=1;jiggle=2;" parent="1" source="HIq26qkVBO2vfs1bq9Pp-63" target="HIq26qkVBO2vfs1bq9Pp-67" edge="1">
          <mxGeometry relative="1" as="geometry" />
        </mxCell>
        <mxCell id="HIq26qkVBO2vfs1bq9Pp-63" value="" style="ellipse;whiteSpace=wrap;html=1;aspect=fixed;strokeWidth=5;fillColor=#97D077;strokeColor=#000000;gradientColor=#97D077;shadow=0;sketch=1;curveFitting=1;jiggle=2;" parent="1" vertex="1">
          <mxGeometry x="730" y="470" width="80" height="79" as="geometry" />
        </mxCell>
        <mxCell id="HIq26qkVBO2vfs1bq9Pp-72" style="edgeStyle=orthogonalEdgeStyle;rounded=0;orthogonalLoop=1;jettySize=auto;html=1;exitX=0.5;exitY=1;exitDx=0;exitDy=0;entryX=0.5;entryY=0;entryDx=0;entryDy=0;strokeWidth=5;sketch=1;curveFitting=1;jiggle=2;curved=1;" parent="1" source="HIq26qkVBO2vfs1bq9Pp-67" target="HIq26qkVBO2vfs1bq9Pp-25" edge="1">
          <mxGeometry relative="1" as="geometry" />
        </mxCell>
        <mxCell id="HIq26qkVBO2vfs1bq9Pp-75" style="edgeStyle=orthogonalEdgeStyle;rounded=0;orthogonalLoop=1;jettySize=auto;html=1;exitX=0.5;exitY=0;exitDx=0;exitDy=0;entryX=0.5;entryY=1;entryDx=0;entryDy=0;sketch=1;curveFitting=1;jiggle=2;strokeWidth=5;curved=1;" parent="1" source="HIq26qkVBO2vfs1bq9Pp-67" target="HIq26qkVBO2vfs1bq9Pp-28" edge="1">
          <mxGeometry relative="1" as="geometry" />
        </mxCell>
        <mxCell id="HIq26qkVBO2vfs1bq9Pp-67" value="" style="ellipse;whiteSpace=wrap;html=1;aspect=fixed;strokeWidth=5;fillColor=#97D077;strokeColor=#000000;gradientColor=#97D077;shadow=0;sketch=1;curveFitting=1;jiggle=2;" parent="1" vertex="1">
          <mxGeometry x="900" y="470" width="80" height="79" as="geometry" />
        </mxCell>
        <mxCell id="HIq26qkVBO2vfs1bq9Pp-73" value="&lt;p style=&quot;line-height: 120%; font-size: 20px;&quot;&gt;&lt;b style=&quot;font-size: 20px;&quot;&gt;&lt;font style=&quot;font-size: 20px;&quot;&gt;only bug fixes are allowed!&lt;/font&gt;&lt;/b&gt;&lt;/p&gt;" style="shape=note;whiteSpace=wrap;html=1;backgroundOutline=1;darkOpacity=0.05;strokeWidth=3;labelPosition=center;verticalLabelPosition=middle;align=center;verticalAlign=bottom;sketch=1;curveFitting=1;jiggle=2;fontSize=20;" parent="1" vertex="1">
          <mxGeometry x="800" y="330" width="100" height="130" as="geometry" />
        </mxCell>
        <mxCell id="HIq26qkVBO2vfs1bq9Pp-74" style="rounded=0;orthogonalLoop=1;jettySize=auto;html=1;endArrow=none;endFill=0;dashed=1;dashPattern=1 1;strokeWidth=3;sketch=1;curveFitting=1;jiggle=2;strokeColor=#000000;entryX=0.5;entryY=1;entryDx=0;entryDy=0;entryPerimeter=0;exitX=0;exitY=0;exitDx=0;exitDy=0;" parent="1" source="HIq26qkVBO2vfs1bq9Pp-67" target="HIq26qkVBO2vfs1bq9Pp-73" edge="1">
          <mxGeometry relative="1" as="geometry">
            <mxPoint x="490" y="490" as="sourcePoint" />
            <mxPoint x="570" y="442" as="targetPoint" />
          </mxGeometry>
        </mxCell>
      </root>
    </mxGraphModel>
  </diagram>
</mxfile>
